# xmcd
#
# Track frame offsets:
# 150
# 17803
# 29232
# 44569
# 59169
# 71011
# 88562
# 99808
# 115394
# 129074
# 142325
# 156634
#
# Disc length: 2333 seconds
#
#
# Revision: 0
# Processed by: cddbd v1.5.2PL0 Copyright (c) Steve Scherf et al.
# Submitted via: FreeRIP 2.70 
#
DISCID=b5091b0c
DTITLE=Os 4 írmãos - .......
DYEAR=1900
DGENRE=Folk
TTITLE0=só liguei pra diser que te amo
TTITLE1=a dança do vassorão
TTITLE2=de bage tche
TTITLE3=o rebolado das gurias
TTITLE4=no embalo do gaitaço
TTITLE5=por esse amor
TTITLE6=resolvi fazer vanera
TTITLE7=minha vida é te amar
TTITLE8=luz desse amor
TTITLE9=relembrando á minha infância
TTITLE10=não dá nada
TTITLE11=poema para os olhos tristes
EXTD=
EXTT0=
EXTT1=
EXTT2=
EXTT3=
EXTT4=
EXTT5=
EXTT6=
EXTT7=
EXTT8=
EXTT9=
EXTT10=
EXTT11=
PLAYORDER=
